<?xml version="1.0" encoding="utf-8"?>
<!-- Generator: Adobe Illustrator 22.1.0, SVG Export Plug-In . SVG Version: 6.00 Build 0)  -->
<svg version="1.1" id="Calque_1" xmlns="http://www.w3.org/2000/svg" xmlns:xlink="http://www.w3.org/1999/xlink" x="0px" y="0px"
	 viewBox="0 0 171.9 171.9" style="enable-background:new 0 0 171.9 171.9;" xml:space="preserve">
<style type="text/css">
	.st0{fill-rule:evenodd;clip-rule:evenodd;fill:#E30613;}
</style>
<g>
	<path class="st0" d="M85.9,0.4c47.3,0,85.9,38.6,85.9,85.9c0,47.3-38.6,85.9-85.9,85.9C38.6,172.1,0,133.6,0,86.3
		C0,39,38.6,0.4,85.9,0.4L85.9,0.4z M85.9,2.9c45.9,0,83.3,37.4,83.3,83.3c0,45.9-37.4,83.4-83.3,83.4c-45.9,0-83.3-37.4-83.3-83.4
		C2.5,40.4,40,2.9,85.9,2.9L85.9,2.9z"/>
	<path class="st0" d="M85.6,104.5c0,0,0.1,0,0.1,0c3.9,0,7.2,3.2,7.2,7.2c0,4-3.2,7.2-7.2,7.2c-3.9,0-7.2-3.2-7.2-7.2
		c0-3.1,2-5.9,5-6.8v-1.1c0-1.3-0.5-1.9-1.9-1.9H65l4.2-14.7c2.9-10.2,9.2-15.2,20-15.2h3.5l0.5-4.2c-9.3,2.7-7.6-9.8,0.6-4.3
		l0.7-5.3c-10.1,2.1-7.3-9.8,0.6-4.4l0.7-5.2c-9.6,2.7-8.3-9.6,0.6-4.4l0.7-5c-10.1,2.5-7.7-8.9-0.9-4.9c6.2,3.3,12.2,1.5,13.4-5.5
		H56.1l-0.3,2.9c7.4-2.9,8,6.8-0.3,3.1L55,38.3c4.7-1.2,8.8-0.8,12.4,0.9c5.2,2.7,10,3.4,14.5,2.1c-2.6,2.4-6.8,3.4-13.6,2.1
		l-18.5,64.9c1.4-1.3,2.5-0.3,2.5,0.9c-0.1,0.8-0.1,1.6-0.1,2.4c0,18.4,15,33.5,33.4,33.5c18.4,0,33.5-15,33.5-33.5
		c0-6.3-1.8-12.2-4.9-17.3H91.4c-0.8,0-1.4-0.6-1.4-1.4l0,0c0-0.8,0.6-1.4,1.4-1.4h30.3c3.4,0,7.6-1.8,8.9-7.2H92.8
		c-0.8,0-1.4-0.6-1.4-1.4l0,0c0-0.8,0.6-1.4,1.4-1.4h32.6c3.4,0,7.6-1.3,8.9-6.7H89.6c-8.7,0-14.9,3.4-17.3,11.5l-3.7,12.9h13.4
		c2.3,0,3.5,1.3,3.5,3.5V104.5L85.6,104.5z M78.9,31.7c1.2,0,2.1,0.9,2.1,2.1c0,1.2-0.9,2.1-2.1,2.1c-1.2,0-2.1-0.9-2.1-2.1
		C76.8,32.6,77.7,31.7,78.9,31.7L78.9,31.7z"/>
</g>
</svg>
