<?xml version="1.0" encoding="UTF-8"?>
<!-- Generator: Adobe Illustrator 22.1.0, SVG Export Plug-In . SVG Version: 6.00 Build 0)  -->
<svg version="1.1" id="Calque_1" xmlns="http://www.w3.org/2000/svg" xmlns:xlink="http://www.w3.org/1999/xlink" x="0px" y="0px" viewBox="0 0 51 51" style="enable-background:new 0 0 51 51;" xml:space="preserve" width="51" height="51">
<style type="text/css">
	.st0{fill:#FFFEFC;}
	.st1{fill:#05A9D9;}
	.st2{fill:#94BA3D;}
</style>
<title>Group 43</title>
<g>
	<path class="st0" d="M3.9,51h43.2V0.1H3.9V51z"/>
	<path class="st1" d="M5.6,48.7h39.8V20H5.6L5.6,48.7z"/>
	<path class="st2" d="M5.6,18.2h39.8V1.8H5.6L5.6,18.2z"/>
	<path class="st0" d="M14.7,10c0-0.8,0-1.4-0.1-1.7c0-0.3-0.1-0.5-0.2-0.6c-0.2-0.4-0.6-0.6-1.2-0.6h-1.1v5.7h1.1   c0.5,0,0.9-0.2,1.2-0.6l0.2-0.4c0-0.1,0.1-0.3,0.1-0.6C14.7,11,14.7,10.6,14.7,10z M17.1,10v0.8c0,0.5,0,0.9-0.1,1.3   c0,0.4-0.1,0.7-0.3,1c-0.2,0.4-0.4,0.7-0.7,1c-0.6,0.7-1.5,1-2.6,1H9.9V4.9h3.6c1.1,0,2,0.3,2.6,1c0.3,0.3,0.5,0.6,0.7,1   c0.1,0.3,0.2,0.7,0.3,1c0,0.4,0.1,0.8,0.1,1.3C17.1,9.1,17.1,10,17.1,10z M23.4,11.4l-0.8-2.7l-0.9,2.7H23.4z M26.9,15h-2.5   L24,13.5h-3L20.5,15H18l3.5-10.2h1.8C23.4,4.9,26.9,15,26.9,15z M33.9,7.1h-2.4V15h-2.4V7.1h-2.4V4.9h7.2L33.9,7.1z M41.8,11.9   c0,0.7-0.2,1.2-0.5,1.7c-0.3,0.5-0.8,0.9-1.4,1.1s-1.2,0.4-1.9,0.4c-0.8,0-1.5-0.1-2.1-0.3c-0.6-0.2-1.2-0.6-1.6-1l1.5-1.6   c0.2,0.3,0.6,0.4,0.9,0.5c0.4,0.1,0.8,0.2,1.2,0.2c0.9,0,1.4-0.3,1.4-0.9c0-0.3-0.1-0.5-0.2-0.6c-0.1-0.1-0.3-0.2-0.6-0.3l-1.2-0.2   c-0.9-0.1-1.5-0.4-2-0.9c-0.4-0.5-0.7-1.2-0.7-2c0-0.6,0.1-1.2,0.4-1.7c0.3-0.5,0.7-0.9,1.2-1.1c0.5-0.3,1.2-0.4,1.9-0.4   c0.7,0,1.3,0.1,1.9,0.3c0.5,0.2,1,0.5,1.4,0.9l-1.5,1.6c-0.2-0.3-0.5-0.4-0.8-0.5C39,7,38.7,7,38.3,7c-0.4,0-0.7,0.1-0.9,0.3   c-0.2,0.2-0.3,0.4-0.3,0.7l0.2,0.5c0.2,0.2,0.4,0.3,0.7,0.3l1.2,0.2C40,9,40.7,9.3,41.1,9.7c0.3,0.3,0.4,0.6,0.5,0.9   C41.8,11,41.8,11.4,41.8,11.9 M23.7,45.5H9.9v-4.7l7.7-8.8c0.4-0.4,0.7-0.8,0.8-1.2c0.2-0.3,0.2-0.7,0.2-1.2c0-0.6-0.2-1.1-0.5-1.5   c-0.3-0.4-0.8-0.6-1.4-0.6c-0.5,0-1,0.2-1.4,0.5c-0.4,0.3-0.6,0.9-0.6,1.7H9.9c0-1.4,0.3-2.6,0.9-3.6c0.6-1,1.5-1.8,2.5-2.4   c1-0.5,2.2-0.8,3.5-0.8c1.3,0,2.5,0.3,3.5,0.8c1,0.5,1.9,1.4,2.4,2.4c0.6,1,0.9,2.2,0.9,3.6c0,1.1-0.2,2-0.6,2.8   c-0.4,0.8-1.1,1.7-2.1,2.7l-5.1,5.7h7.8C23.7,40.8,23.7,45.5,23.7,45.5z M41.7,42.5h-1.6v3h-4.7v-3h-8.9v-4.9l7.1-14.5h5.4L32,37.6   h3.5v-3h4.7v3h1.6L41.7,42.5z"/>
</g>
</svg>