<?xml version="1.0" encoding="utf-8"?>
<!-- Generator: Adobe Illustrator 22.1.0, SVG Export Plug-In . SVG Version: 6.00 Build 0)  -->
<svg version="1.1"
	 id="VARG" inkscape:output_extension="org.inkscape.output.svg.inkscape" inkscape:version="0.45.1" sodipodi:docbase="H:\001_Inkscape\Logos" sodipodi:docname="Esso.svg" sodipodi:version="0.32" xmlns:cc="http://web.resource.org/cc/" xmlns:dc="http://purl.org/dc/elements/1.1/" xmlns:inkscape="http://www.inkscape.org/namespaces/inkscape" xmlns:rdf="http://www.w3.org/1999/02/22-rdf-syntax-ns#" xmlns:sodipodi="http://sodipodi.sourceforge.net/DTD/sodipodi-0.dtd" xmlns:svg="http://www.w3.org/2000/svg"
	 xmlns="http://www.w3.org/2000/svg" xmlns:xlink="http://www.w3.org/1999/xlink" x="0px" y="0px" viewBox="0 0 220 220"
	 style="enable-background:new 0 0 220 220;" xml:space="preserve">
<style type="text/css">
	.st0{fill:#0265BA;}
	.st1{fill:#FFFFFF;}
	.st2{fill:#D7050F;}
</style>
<sodipodi:namedview  bordercolor="#666666" borderopacity="1.0" gridtolerance="10.0" guidetolerance="10.0" id="base" inkscape:current-layer="VARG" inkscape:cx="110" inkscape:cy="58.308313" inkscape:pageopacity="0.0" inkscape:pageshadow="2" inkscape:window-height="579" inkscape:window-width="752" inkscape:window-x="42" inkscape:window-y="63" inkscape:zoom="2.4166667" objecttolerance="10.0" pagecolor="#ffffff">
	</sodipodi:namedview>
<path id="path2261" class="st0" d="M3,110.7c0,9.6,2.6,19.1,7.4,27.4c6.1,10.2,14.2,19.1,23.9,25.9c10.1,7.1,21.4,12.6,33.3,16
	c13.8,4,28.1,6.1,42.4,6.1c14.3,0,28.6-2,42.4-6.1c11.9-3.5,23.1-8.9,33.2-16c9.7-6.9,17.9-15.7,23.9-25.9
	c4.9-8.3,7.4-17.7,7.4-27.4c0-9.6-2.6-19-7.4-27.3c-6.1-10.3-14.2-19.1-23.9-25.9c-10.1-7.1-21.4-12.5-33.2-16
	c-13.8-4-28.1-6.1-42.4-6.1c-14.3,0-28.6,2-42.4,6.1c-11.9,3.5-23.2,8.9-33.3,16c-9.7,6.9-17.9,15.7-23.9,25.9
	C5.5,91.7,3,101.1,3,110.7z"/>
<path id="path2263" class="st1" d="M20.7,110.7c0,7.5,2.1,14.8,6.1,21.1c5.1,8.2,12,15.2,20.1,20.5c8.5,5.6,17.8,9.8,27.6,12.5
	c11.6,3.2,23.6,4.8,35.6,4.8c12,0,24-1.6,35.6-4.8c9.8-2.7,19.1-6.9,27.6-12.5c8.1-5.3,14.9-12.3,20.1-20.5c4-6.3,6.1-13.7,6.1-21.1
	c0-7.4-2.1-14.8-6.1-21.1c-5.2-8.2-12-15.2-20.1-20.5c-8.5-5.6-17.8-9.8-27.6-12.5c-11.6-3.2-23.6-4.8-35.6-4.8
	c-12,0-24,1.6-35.6,4.8c-9.8,2.7-19.1,6.9-27.6,12.5c-8.1,5.3-14.9,12.3-20.1,20.5C22.8,95.9,20.7,103.3,20.7,110.7z"/>
<path id="path2265" class="st2" d="M61.4,110.9c3.2-0.8,6.6-1,9.9-0.5l0-10c-3.3,0.5-6.6,0.3-9.8-0.5c-1.8-0.5-3.4-1.8-4.1-3.6
	c-1.6-4.1,1.5-8.4,5.8-8.4c3.5,0,6.9,0.7,10.1,2.1c0.4-3.5,0.8-7,1.1-10.5c-4.9-2.5-10.4-3.7-15.8-3.3c-5,0.1-9.8,2.2-13.2,6
	c-6.5,7.1-4.2,18.5,4.5,22.5c-3.1,1.6-5.6,4-7.5,6.9c-1.1,2.1-1.7,4.4-1.6,6.8c0,6.4,3.7,12.2,9.5,14.8c7.7,3.1,16.3,2.6,23.6-1.2
	l-1.1-10.9c-3.2,1.3-6.6,2-10.1,2c-1.7,0-3.3-0.6-4.5-1.7c-0.9-0.8-1.4-1.7-1.6-2.9C55.8,115.1,58,111.7,61.4,110.9z"/>
<path id="path2267" class="st2" d="M135.2,109c-2.1-0.9-4.2-1.8-6.3-2.7c-0.5-0.2-1.1-0.5-1.6-0.8c-1.1-0.7-1.6-2-1.3-3.2
	c0.3-1.2,1.4-2.1,2.7-2.3c1.1-0.1,2.3-0.1,3.4,0.2c3.5,0.8,6.9,2.1,10.1,3.8l0-10.7c-2.8-1.8-5.9-3-9.3-3.5
	c-3.5-0.8-7.1-0.5-10.5,0.7c-4.6,1.5-8,5.4-9.1,10.1c-1,4.7,0.6,9.6,4.4,12.6c1,0.8,2.2,1.5,3.4,2c2.5,0.9,4.9,2,7.3,3.2
	c0.8,0.4,1.4,1.1,1.7,1.9c0.5,1.5-0.1,3.1-1.4,3.9c-0.9,0.6-2,0.9-3,0.8c-4.3-0.2-8.5-1.7-12-4.3v11.3c5.3,3,11.4,4.1,17.4,3.2
	c6.3-0.7,11.4-5.6,12.4-11.8c0.7-3.7-0.3-7.4-2.6-10.3C139.3,111.3,137.4,109.9,135.2,109z"/>
<path id="path2269" class="st2" d="M100.2,109c-2.1-0.9-4.2-1.8-6.3-2.7c-0.5-0.2-1.1-0.5-1.6-0.8c-1.1-0.7-1.7-2-1.3-3.2
	c0.4-1.2,1.4-2.1,2.7-2.3c1.1-0.1,2.3-0.1,3.4,0.2c3.5,0.8,6.9,2.1,10.1,3.8l0-10.7c-2.8-1.8-6-3-9.3-3.5c-3.5-0.8-7.2-0.5-10.5,0.7
	c-4.6,1.5-8.1,5.4-9.1,10.1c-1,4.7,0.6,9.6,4.4,12.6c1,0.8,2.2,1.5,3.4,2c2.5,0.9,4.9,2,7.3,3.2c0.8,0.4,1.4,1.1,1.7,1.9
	c0.5,1.5-0.1,3.1-1.4,3.9c-0.9,0.6-2,0.9-3,0.8c-4.3-0.2-8.5-1.7-11.9-4.3v11.3c5.3,3,11.4,4.1,17.4,3.2c6.3-0.7,11.4-5.6,12.4-11.8
	c0.7-3.7-0.3-7.4-2.6-10.3C104.3,111.3,102.3,109.9,100.2,109z"/>
<path id="path2271" class="st2" d="M173,90.3c-4.6-1.7-9.7-1.7-14.3,0.1c-3,1.2-5.6,3.2-7.4,5.9c-0.6,0.9-1.1,1.8-1.5,2.8
	c-0.4,1.1-0.8,2.2-1,3.4c-1.2,5.2-1.4,10.6-0.6,16c0.3,2.4,0.8,4.7,1.7,6.9c0.4,1,0.9,1.9,1.5,2.8c1.9,2.8,4.7,4.9,7.9,6
	c4.6,1.6,9.5,1.6,14-0.1c3.2-1.2,5.9-3.3,7.7-6.1c0.6-0.8,1-1.7,1.4-2.7c0.9-2.2,1.4-4.5,1.7-6.9c0.6-4.1,0.6-8.3,0-12.4
	c-0.3-2.4-0.9-4.7-1.7-6.9c-0.4-1-0.9-1.8-1.4-2.7C178.9,93.5,176.2,91.4,173,90.3z"/>
<path id="path2273" class="st1" d="M171.6,119.4c0.6-2.4,1-4.8,1-7.2c0-2.4-0.3-4.8-1-7.2c-0.2-0.8-0.6-1.6-1-2.4
	c-0.4-0.7-1-1.3-1.7-1.8c-0.9-0.5-1.8-0.8-2.8-0.8c-1,0-2,0.3-2.8,0.8c-0.7,0.5-1.3,1.1-1.7,1.8c-0.5,0.7-0.8,1.5-1,2.4
	c-0.6,2.4-1,4.8-1,7.2c0,2.5,0.3,4.9,1,7.2c0.2,0.9,0.6,1.7,1,2.4c0.4,0.7,1,1.3,1.7,1.8c0.8,0.5,1.8,0.8,2.8,0.8c1,0,2-0.3,2.8-0.8
	c0.7-0.5,1.3-1.1,1.7-1.8C171.1,121.1,171.4,120.3,171.6,119.4z"/>
</svg>
