<?xml version="1.0" encoding="utf-8"?>
<!-- Generator: Adobe Illustrator 13.0.0, SVG Export Plug-In . SVG Version: 6.00 Build 14948)  -->
<!DOCTYPE svg PUBLIC "-//W3C//DTD SVG 1.1//EN" "http://www.w3.org/Graphics/SVG/1.1/DTD/svg11.dtd">
<svg version="1.1" id="Layer_1" xmlns="http://www.w3.org/2000/svg" xmlns:xlink="http://www.w3.org/1999/xlink" x="0px" y="0px"
	 width="218px" height="198px" viewBox="0 0 218 198" enable-background="new 0 0 218 198" xml:space="preserve">
<path fill="#1F3075" d="M215.79,114.709c1.156-8.23,1.208-20.591,0.125-30.067c-1.45-14.764-10.805-18.863-14.711-19.934
	c-6.988-17.987-19.099-33.374-35.069-44.533C149.585,8.61,130.097,2.498,109.78,2.498S69.975,8.61,53.424,20.175
	c-15.97,11.159-28.081,26.547-35.068,44.533c-3.907,1.071-13.262,5.171-14.714,19.957c-1.081,9.453-1.029,21.813,0.128,30.044
	c1.14,12.072,8.364,18.083,14.542,19.717c6.973,18.014,19.08,33.427,35.06,44.609c16.562,11.588,36.068,17.713,56.408,17.713
	s39.846-6.125,56.408-17.713c15.98-11.182,28.087-26.595,35.06-44.608C207.426,132.792,214.65,126.781,215.79,114.709z"/>
<path fill="#FFFFFF" d="M199.849,131.72c-0.496,0.103-0.905,0.452-1.084,0.926c-6.714,17.771-18.565,32.974-34.273,43.964
	c-16.062,11.239-34.981,17.179-54.711,17.179c-19.731,0-38.65-5.94-54.712-17.179c-15.708-10.99-27.559-26.193-34.273-43.964
	c-0.18-0.474-0.589-0.823-1.085-0.926c-5.357-1.108-11.977-6.313-13-17.336c-0.002-0.023-0.005-0.047-0.008-0.07
	c-1.128-8.01-1.177-20.074-0.119-29.336c1.331-13.55,9.667-16.803,13.188-17.574c0.489-0.106,0.89-0.453,1.067-0.92
	c6.73-17.741,18.584-32.916,34.28-43.883C71.17,11.385,90.071,5.457,109.78,5.457c19.708,0,38.61,5.928,54.661,17.144
	c15.696,10.967,27.55,26.142,34.28,43.883c0.177,0.467,0.578,0.813,1.066,0.92c3.522,0.771,11.858,4.024,13.187,17.551
	c1.061,9.286,1.012,21.35-0.116,29.36c-0.003,0.022-0.006,0.046-0.008,0.069C211.827,125.406,205.207,130.611,199.849,131.72z"/>
<path fill="#EC5E04" d="M196.511,66.833c-13.338-34.555-47.14-59.097-86.731-59.097S36.387,32.278,23.049,66.833
	C77.727,57.688,141.833,57.194,196.511,66.833z"/>
<path fill="#EC5E04" d="M196.511,132.413c-13.338,34.555-47.14,59.098-86.731,59.098s-73.393-24.542-86.731-59.098
	C77.727,141.559,141.833,142.052,196.511,132.413z"/>
<rect x="144.545" y="79.139" fill="#1F3075" width="16.52" height="44.875"/>
<path fill="#1F3075" d="M113.56,94.919h16.52v29.094h-16.52v-0.986c-3.205,1.973-11.588,2.219-13.561,2.219
	s-15.533-1.726-15.533-12.082V94.919h16.52v13.561c-0.247,2.712,0.739,6.904,5.671,6.904c4.931,0,6.903-1.479,6.903-5.671V94.919z"
	/>
<path fill="#1F3075" d="M178.324,124.013v-17.506h-6.904V94.919h6.904v-7.397c0.247-4.931,2.712-9.123,10.109-9.123
	s11.342,0.986,15.78,3.945l-0.247,8.63c-4.685-2.712-9.739-3.452-9.739,0.986v2.959h6.903v11.588h-6.903v17.506H178.324z"/>
<path fill="#1F3075" d="M46.413,105.274v-8.876h25.149v27.615h-16.52v-0.986c-3.206,0.986-9.246,0.953-12.451,0.986
	c-11.835,0.123-27.738-7.274-27.738-25.519c0-18.246,17.382-26.383,28.971-26.383c11.588,0,20.341,3.329,24.286,5.794v9.616
	c-5.424-1.726-10.602-4.191-17.506-4.191s-17.259,4.191-17.013,16.026c0.246,11.835,9.123,13.808,12.821,13.808
	c3.698,0,7.396-0.863,8.629-2.589v-5.301H46.413z"/>
<path fill="#1F3075" d="M202.922,120.478c-0.399-0.399-0.88-0.598-1.443-0.598c-0.538,0-1.005,0.185-1.404,0.554
	c-0.425,0.396-0.637,0.891-0.637,1.487c0,0.574,0.196,1.058,0.59,1.451c0.393,0.394,0.876,0.59,1.451,0.59
	c0.556,0,1.032-0.192,1.429-0.576c0.408-0.397,0.612-0.885,0.612-1.465C203.52,121.357,203.32,120.877,202.922,120.478z"/>
<path fill="#FFFFFF" d="M202.67,120.738c0.326,0.334,0.49,0.729,0.49,1.183c0,0.467-0.165,0.867-0.493,1.202
	c-0.329,0.333-0.725,0.499-1.188,0.499c-0.465,0-0.862-0.165-1.191-0.496c-0.33-0.331-0.496-0.732-0.496-1.205
	c0-0.456,0.163-0.85,0.488-1.183c0.33-0.34,0.729-0.509,1.199-0.509C201.942,120.229,202.339,120.398,202.67,120.738z"/>
<path fill="#1F3075" d="M201.177,122.256h0.125l0.13,0.008c0.091,0.005,0.158,0.018,0.202,0.036
	c0.081,0.031,0.137,0.086,0.167,0.166c0.018,0.048,0.03,0.14,0.036,0.277c0.006,0.137,0.018,0.241,0.036,0.313h0.565l-0.019-0.064
	c-0.008-0.022-0.013-0.044-0.016-0.066c-0.003-0.022-0.004-0.044-0.004-0.066v-0.202c0-0.23-0.066-0.399-0.199-0.507
	c-0.072-0.057-0.18-0.101-0.321-0.13c0.155-0.017,0.285-0.067,0.392-0.152c0.106-0.085,0.159-0.222,0.159-0.413
	c0-0.25-0.101-0.429-0.302-0.54c-0.118-0.064-0.267-0.103-0.446-0.116c-0.031-0.002-0.187-0.003-0.466-0.004
	c-0.28-0.001-0.49-0.001-0.63-0.001v2.262h0.592V122.256z"/>
<path fill="#FFFFFF" d="M201.731,121.766c-0.078,0.056-0.186,0.083-0.324,0.083h-0.23v-0.656h0.145c0.147,0,0.262,0.016,0.343,0.047
	c0.122,0.048,0.183,0.133,0.183,0.257S201.809,121.71,201.731,121.766z"/>
</svg>
