<?xml version="1.0" encoding="utf-8"?>
<!-- Generator: Adobe Illustrator 22.1.0, SVG Export Plug-In . SVG Version: 6.00 Build 0)  -->
<svg version="1.1" id="Calque_1" xmlns="http://www.w3.org/2000/svg" xmlns:xlink="http://www.w3.org/1999/xlink" x="0px" y="0px"
	 viewBox="0 0 260 260" style="enable-background:new 0 0 260 260;" xml:space="preserve">
<style type="text/css">
	.st0{fill:none;}
	.st1{fill:#ED1A3A;}
	.st2{fill:#FFFFFF;}
</style>
<g>
	<title>background</title>
	<rect id="canvas_background" x="26.5" y="-1" class="st0" width="207" height="262"/>
</g>
<g>
	<title>Layer 1</title>
	<g id="svg_1">
		<path id="path2949" d="M29.4,208.2h12.1v35.5h12.3v11.2H29.4V208.2"/>
		<path id="path2951" d="M70.1,208.2v27.6c0,0.5,0,1.1,0.1,1.8s0.2,1.5,0.4,2.3c0.4,1.2,1,2.4,1.8,3.5c0.9,1.1,2.2,1.6,4,1.7
			c1.8,0,3.2-0.6,4.1-1.7c0.9-1.1,1.4-2.2,1.8-3.5c0.2-0.8,0.3-1.6,0.4-2.3s0.1-1.3,0.1-1.8v-27.6h12.1V236c0,7-1.7,12.1-5,15.3
			s-7.7,4.8-13.1,4.8l-0.6,0.1c-5.3,0-9.7-1.7-13.1-4.9C59.7,248.1,58,243,58,236v-27.8H70.1"/>
		<path id="path2953" d="M101.7,208.2h12.1v18.7l11.8-18.7h14.1l-15.6,22.6l16,24.1h-15l-11.3-19.1v19.1h-12.1L101.7,208.2"/>
		<path id="path2955" d="M142.7,248.9c-3.8-4.9-5.6-10.7-5.6-17.3c0-6.5,1.8-12.3,5.6-17.3c3.7-5,9.2-7.4,16.6-7.4h0.6
			c7.3,0,12.8,2.5,16.5,7.4c3.7,5,5.6,10.7,5.6,17.3s-1.9,12.3-5.6,17.2c-3.7,4.9-9.2,7.4-16.5,7.4l-0.6,0.1
			C151.9,256.3,146.4,253.8,142.7,248.9L142.7,248.9z M160.6,245c0.4-0.1,0.9-0.2,1.3-0.4c1.9-0.6,3.6-1.9,5.1-3.9s2.3-5.1,2.3-9.1
			s-0.8-7.1-2.4-9.1c-1.6-2-3.3-3.3-5.1-3.9c-0.4-0.1-0.8-0.2-1.3-0.3c-0.4-0.1-0.8-0.1-1.2-0.1s-0.9,0-1.4,0.1s-0.9,0.2-1.4,0.4
			c-1.8,0.6-3.5,1.9-5,4c-1.5,2-2.3,5-2.3,9s0.8,7,2.3,9s3.2,3.3,5,4c0.4,0.2,0.9,0.3,1.3,0.4s0.9,0.1,1.3,0.1
			C159.8,245.1,160.2,245.1,160.6,245"/>
		<path id="path2957" d="M187.3,208.2h12.1v46.7h-12.1V208.2z"/>
		<path id="path2959" d="M206.8,208.2h12.1v35.5h12.3v11.2h-24.4L206.8,208.2"/>
	</g>
	<g id="svg_2">
		<path id="path2969" class="st1" d="M29.2,201.4h202.1V1H29.2V201.4z"/>
		<path id="path2971" class="st2" d="M209.6,37.5l-23.1,37.4c-2.5,4.2-2.2,7.5-1,10.7l35.1,89.9H75.2c-13.1,0-23.2-10.5-23.2-23
			L51.9,32.8c0.4-15.5,22.9-15.7,23.3-0.1V145c0,3.6,3.1,7.6,7.2,7.5h106.5l-27.6-65c-0.7-2.5-1.2-5-1.2-7.4c0-2.7,1.2-7.1,3-10.7
			l25.3-41.7c1.9-3.8,5.7-6.3,10.1-6.4c6.3-0.3,11.7,4.1,12,10.8C210.6,33.2,210.3,36.2,209.6,37.5"/>
		<path id="path2973" class="st2" d="M129.3,113V32.7c0-15.7,22.8-15.8,23.1,0v81.1c0,18.6-13.9,30.8-30.8,30.8
			c-17,0-30.9-12.6-30.9-30.8V32.7c0-15.7,23.1-15.7,23.1,0V113C113.7,123.7,129.3,124.4,129.3,113"/>
	</g>
</g>
</svg>
