<?xml version="1.0" encoding="utf-8"?>
<!-- Generator: Adobe Illustrator 22.0.1, SVG Export Plug-In . SVG Version: 6.00 Build 0)  -->
<!DOCTYPE svg PUBLIC "-//W3C//DTD SVG 1.1//EN" "http://www.w3.org/Graphics/SVG/1.1/DTD/svg11.dtd">
<svg version="1.1" id="Ebene_1" xmlns="http://www.w3.org/2000/svg" xmlns:xlink="http://www.w3.org/1999/xlink" x="0px" y="0px"
	 viewBox="0 0 265.8 200" style="enable-background:new 0 0 265.8 200;" xml:space="preserve">
<style type="text/css">
	.st0{fill:#66CC00;}
	.st1{fill:#1D1D1B;}
	.st2{fill:#003366;}
	.st3{fill:none;}
</style>
<title>ENG_OMV_Logo_Claim_ZZ</title>
<rect x="26" y="99.9" class="st0" width="218.1" height="3.3"/>
<path class="st1" d="M28.4,146.2c0,17.4,11.1,30.9,29.6,30.9s29.6-13.6,29.6-30.9s-11.1-31-29.6-31S28.4,128.8,28.4,146.2
	 M38.3,146.2c0-11.7,5.8-22,19.6-22s19.6,10.3,19.6,22c0,11.3-5.8,21.9-19.6,21.9S38.3,157.5,38.3,146.2"/>
<polygon class="st1" points="152.4,176.4 161.2,176.4 161.2,117 148,117 131.8,161.5 115.5,117 102.2,117 102.2,176.4 111.2,176.4 
	111.1,128.9 128.6,176.4 134.9,176.4 152.4,128.9 "/>
<polygon class="st1" points="227.7,117 206.7,162.2 185.8,117 174.8,117 202.2,176.4 210.5,176.4 238.5,117 "/>
<polygon class="st2" points="215.8,23.5 201.1,49.1 204.9,49.1 219.7,23.5 244,23.5 206.3,88.2 168.8,23.5 "/>
<polygon class="st2" points="127.9,23.5 113.1,49.1 117,49.1 131.7,23.5 150,23.5 135.2,49.1 139.1,49.1 153.8,23.5 163.5,23.5 
	163.5,88.2 99.6,88.2 99.6,23.5 "/>
<path class="st2" d="M71.2,23.9c17.6,6.3,26.7,25.7,20.3,43.2c-6.3,17.6-25.7,26.7-43.2,20.3C30.7,81.2,21.6,61.8,28,44.3
	c4.8-13.4,17.6-22.4,31.8-22.3c2.8,0.1,5.5,0.4,8.2,1.1L53,49.1h3.8L71.2,23.9z"/>
<rect x="25.6" y="21.8" class="st3" width="218.4" height="156.3"/>
</svg>
