<?xml version="1.0" encoding="utf-8"?>
<!-- Generator: Adobe Illustrator 22.1.0, SVG Export Plug-In . SVG Version: 6.00 Build 0)  -->
<svg version="1.1"
	 id="Layer_1" xmlns:cc="http://creativecommons.org/ns#" xmlns:dc="http://purl.org/dc/elements/1.1/" xmlns:inkscape="http://www.inkscape.org/namespaces/inkscape" xmlns:rdf="http://www.w3.org/1999/02/22-rdf-syntax-ns#" xmlns:sodipodi="http://sodipodi.sourceforge.net/DTD/sodipodi-0.dtd" xmlns:svg="http://www.w3.org/2000/svg"
	 xmlns="http://www.w3.org/2000/svg" xmlns:xlink="http://www.w3.org/1999/xlink" x="0px" y="0px" viewBox="0 0 507 507"
	 style="enable-background:new 0 0 507 507;" xml:space="preserve">
<style type="text/css">
	.st0{fill:#002451;}
	.st1{fill:#FFFFFF;}
	.st2{fill:#FDB827;}
	.st3{fill:#ED1C2E;}
	.st4{fill:#007CC3;}
</style>
<g id="g3" transform="matrix(3.9698743,0,0,3.9698743,-948.2283,-1513.586)">
	<path id="path5" class="st0" d="M261.5,432.3c-1,0.4-2.2,0.6-3.3,0.6c-5.8,0-10.2-5.3-10.2-11.5c0-6.3,4.4-11.5,10.2-11.5
		c5.8,0,10.2,5.2,10.2,11.5c0,1.8-0.4,3.6-1.1,5.1l-2.5-2.4c-1.8-1.8-4.4-1.8-6-0.2s-1.5,4.2,0.3,6L261.5,432.3L261.5,432.3z
		 M274.1,433.2c2.2-3.3,3.4-7.2,3.4-11.8c0-11.2-8.3-20.3-19.3-20.3c-11.2,0-19.3,9.1-19.3,20.3c0,11.8,8.7,20.3,19.3,20.3
		c3.7,0,7.1-1,10-2.8l2.3,2.2c1.8,1.8,4.4,1.8,6,0.2c1.6-1.6,1.5-4.2-0.3-6L274.1,433.2L274.1,433.2z"/>
	<path id="path7" class="st0" d="M302.2,419.7c0,0-0.1,0.2-0.6,0.2c0.3,0,0.6,0.2,0.6,0.2c3.7,2.3,5.1,6.1,5.1,9.1
		c0,8.1-5.8,12.7-13.3,12.7c-7.5,0-13.3-4.7-13.3-12.7c0-3,1.5-6.8,5.1-9.1c0,0,0.3-0.2,0.6-0.2c-0.5,0-0.6-0.2-0.6-0.2
		c-2.6-2-3.5-5-3.5-7.7c0-6.2,5.3-10.9,11.7-10.9c6.5,0,11.7,4.7,11.7,10.9C305.7,414.7,304.8,417.7,302.2,419.7L302.2,419.7z
		 M294,416.4c2.2,0,3.6-1.7,3.6-3.8c0-2.2-1.5-3.8-3.6-3.8s-3.6,1.7-3.6,3.8C290.3,414.7,291.8,416.4,294,416.4z M294,433.9
		c2.5,0,4.4-2,4.4-5.1c0-2.9-1.9-5-4.4-5c-2.5,0-4.4,2.1-4.4,5C289.6,431.9,291.5,433.9,294,433.9L294,433.9z"/>
</g>
<g id="g9" transform="matrix(3.9698743,0,0,3.9698743,-948.2283,-1513.586)">
	<path id="path11" class="st1" d="M328.8,489.2l0.8-1.2l3,1.2h20.8c24.6-48.9,7.1-81.2,7.1-81.2c-3.1,1.3-8.5,4.6-13.4,8.3
		c-0.7-8.3-2.6-13-2.6-13s-35.8,8.6-60.8,64.9c0,0,10.6,10.2,33.6,20.9L328.8,489.2L328.8,489.2z"/>
	<path id="path13" class="st2" d="M317.4,489.2c-23-10.7-33.6-20.9-33.6-20.9c25-56.3,60.8-64.9,60.8-64.9s1.8,4.6,2.6,13
		c4.9-3.7,10.3-7.1,13.4-8.3c0,0,17.5,32.3-7.1,81.2h-20.8l-3-1.2l-0.8,1.2L317.4,489.2L317.4,489.2z"/>
	<path id="path15" class="st1" d="M352.8,488.2c7.5-15.2,11.4-29.2,12.5-42.7c1.1-13.9-1-26.7-5.2-36.2c-5.1,2.4-10.7,6.6-12.9,8.3
		c0,0,0.1,1.4,0.2,4.4h-30.8c-1.7,1.5-3.2,3.1-4.7,4.7h35.5c0,0-0.1,3.4-0.2,5h-39.8c-0.1,0.1-0.1,0.1-0.2,0.2
		c-1.6,1.8-3.1,3.7-4.5,5.6h44c0,0-0.3,2.9-0.7,5.6h-47.3c-1.4,2.1-2.7,4.2-3.9,6.2h50.1c0,0-1,4.7-1.6,6.7h-52.4
		c-1.3,2.4-2.4,4.5-3.3,6.3h53.8c0,0-1.2,3.6-2,5.8H285c0,0,0,0,0,0s2.4,2.3,7.5,5.9h44.6c0,0-0.2,0.6-2.6,5.4h-33.7
		c2.6,1.5,5.4,3.1,8.6,4.8l22.5,0c0,0-0.6,1.2-1.8,3l2.7,1.1L352.8,488.2L352.8,488.2z"/>
	<path id="path17" class="st1" d="M346.2,417.6c-0.1-1.5-0.2-2.9-0.4-4.1H327c-1.9,1.3-3.7,2.7-5.4,4.1H346.2L346.2,417.6z"/>
	<path id="path19" class="st1" d="M345.2,409.6c-0.2-1.1-0.4-2-0.6-2.8h-6.2c-1.8,0.8-3.6,1.8-5.3,2.8H345.2z"/>
	<g id="g21">
		<g id="g23">
			<path id="path25" class="st3" d="M354.7,484.1c0.7-1.6,1.4-3.2,2.1-4.8h-44.9c3.2,1.7,7.3,3.6,10.3,4.8H354.7L354.7,484.1z"/>
		</g>
		<g id="g27">
			<path id="path29" class="st3" d="M359,473.9c0.7-2,1.4-3.9,2-5.9h-52.2c0,0-0.9,2.5-1.7,5.9H359L359,473.9z"/>
		</g>
		<g id="g31">
			<path id="path33" class="st3" d="M362.5,462.3c0.5-2.1,1-4.2,1.4-6.3l-49.9,0c-1.1,2.1-2.2,4.4-3,6.3H362.5L362.5,462.3z"/>
		</g>
		<path id="path35" class="st3" d="M347.2,417.6c1.2-0.9,3.3-2.5,5.8-4.1h8.7c0.5,1.3,0.9,2.7,1.3,4.1H347.2z"/>
		<g id="g37">
			<path id="path39" class="st3" d="M341.9,421.9c-1.2,1.1-3.4,3-5.1,4.7h28.1c-0.2-1.6-0.5-3.2-0.8-4.7L341.9,421.9L341.9,421.9z"
				/>
		</g>
		<g id="g41">
			<path id="path43" class="st3" d="M365.6,437.5c0-2-0.1-4-0.2-5.9h-33.6c-1.4,1.5-3.8,4.2-5.2,5.9H365.6z"/>
		</g>
		<g id="g45">
			<path id="path47" class="st3" d="M364.9,449.3c0.2-1.3,0.3-2.6,0.4-3.8c0.1-0.8,0.1-1.6,0.2-2.4h-43.3c-1.3,1.7-3.2,4.5-4.2,6.2
				H364.9L364.9,449.3z"/>
		</g>
	</g>
	<g id="g49">
		<g id="g51">
			<path id="path53" class="st4" d="M354.7,484.2c-0.6,1.3-1.3,2.7-1.9,4.1h-20l-2.7-1.1c1.1-1.8,1.8-3,1.8-3l0,0L354.7,484.2
				L354.7,484.2z"/>
		</g>
		<g id="g55">
			<path id="path57" class="st4" d="M334.5,479.4c2.4-4.8,2.6-5.4,2.6-5.4v0H359l0,0c-0.6,1.8-1.4,3.6-2.1,5.4l0,0L334.5,479.4
				L334.5,479.4L334.5,479.4z"/>
		</g>
		<g id="g59">
			<path id="path61" class="st4" d="M339.5,468.1c0.9-2.1,2-5.8,2-5.8v0h21l0,0c-0.5,1.9-1,3.8-1.6,5.8v0L339.5,468.1L339.5,468.1
				L339.5,468.1z"/>
		</g>
		<g id="g63">
			<path id="path65" class="st4" d="M364.9,449.3c-0.3,2.2-0.6,4.5-1,6.7l0,0h-20.6v0c0.6-2,1.6-6.7,1.6-6.7v0L364.9,449.3
				L364.9,449.3L364.9,449.3z"/>
		</g>
		<path id="path67" class="st4" d="M361.7,413.4c-0.5-1.4-1-2.8-1.6-4.1c-2.4,1.1-4.9,2.7-7.1,4.1H361.7z"/>
		<g id="g69">
			<path id="path71" class="st4" d="M364,421.9c-0.3-1.5-0.6-3-1-4.4h-15.8c0,0,0.1,1.4,0.2,4.4H364z"/>
		</g>
		<path id="path73" class="st4" d="M365.3,431.6c-0.1-1.7-0.3-3.3-0.5-5l0,0h-17.4h0c0,0-0.1,3.4-0.2,5l0,0L365.3,431.6L365.3,431.6
			L365.3,431.6z"/>
		<g id="g75">
			<path id="path77" class="st4" d="M365.5,443.1c0.1-1.9,0.1-3.8,0.1-5.6l0,0h-18.9l0,0c0,0-0.3,2.9-0.7,5.6v0L365.5,443.1
				L365.5,443.1L365.5,443.1z"/>
		</g>
	</g>
</g>
</svg>
