<?xml version="1.0" encoding="utf-8"?>
<!-- Generator: Adobe Illustrator 22.1.0, SVG Export Plug-In . SVG Version: 6.00 Build 0)  -->
<svg version="1.1" id="Shell_logotype" xmlns:svg="http://www.w3.org/2000/svg"
	 xmlns="http://www.w3.org/2000/svg" xmlns:xlink="http://www.w3.org/1999/xlink" x="0px" y="0px" viewBox="0 0 577 577"
	 style="enable-background:new 0 0 577 577;" xml:space="preserve">
<style type="text/css">
	.st0{fill:#ED1C24;}
	.st1{fill:#FFD500;}
</style>
<g id="Shell_logotype_1_" transform="translate(-66.53065,-189.1479)">
	<path id="Red_part" class="st0" d="M355,736.4c-20,0-30.3-13-30.3-13c-16.4-0.7-144.8-0.4-144.8-0.4l-12.5-105.5
		c0,0-79.1-55.7-85.5-62.2C44,383.1,181.2,218.9,355,218.9s311.1,164.2,273.1,336.4c-6.4,6.4-85.5,62.2-85.5,62.2L530.1,723
		c0,0-128.4-0.4-144.8,0.4C385.3,723.3,375,736.4,355,736.4z"/>
	<path id="Yellow_part" class="st1" d="M355.2,575.9l-12.1-304.6c-14.6-3-52,0.6-72,15.5l58.2,290.2l-79.4-278.3
		c-19-0.2-57.5,32-60.3,41.5l115.9,246.9L175.3,361.5c-12.8,4.8-40.9,56.4-36.4,62.4L284,601.6L134.7,449.9c0,0-19.4,29.6-6.8,79.6
		l84.3,60.9l10.6,83.2h103.4c0,0,16.9,16,28.9,16s28.9-16,28.9-16h103.4l10.6-83.2l84.3-60.9c12.7-50.1-6.8-79.6-6.8-79.6
		L426.2,601.6L571.4,424c4.5-6-23.6-57.7-36.4-62.4L404.7,587.3l115.9-246.9c-2.9-9.5-41.3-41.7-60.3-41.5l-79.4,278.3l58.2-290.2
		c-20-14.9-57.3-18.5-72-15.5L355.2,575.9z"/>
</g>
</svg>
