<?xml version="1.0" encoding="utf-8"?>
<!-- Generator: Adobe Illustrator 22.0.1, SVG Export Plug-In . SVG Version: 6.00 Build 0)  -->
<!DOCTYPE svg PUBLIC "-//W3C//DTD SVG 1.1//EN" "http://www.w3.org/Graphics/SVG/1.1/DTD/svg11.dtd">
<svg version="1.1" id="Calque_1" xmlns="http://www.w3.org/2000/svg" xmlns:xlink="http://www.w3.org/1999/xlink" x="0px" y="0px"
	 viewBox="0 0 65.9 67.6" style="enable-background:new 0 0 65.9 67.6;" xml:space="preserve">
<style type="text/css">
	.st0{clip-path:url(#SVGID_2_);fill:#FFFFFF;}
	.st1{clip-path:url(#SVGID_4_);fill:#E93330;}
</style>
<g>
	<defs>
		<path id="SVGID_1_" d="M7.9,25.9c-0.8,2.6-1.2,5.3-1.2,8c0,4.9,3.9,17,10.5,21.5c3.2,2.2,9.6,4.8,15.4,4.8c5.7,0,11-2,15.5-4.9
			c3.1-2,10.2-12.7,10.2-21.3c0-14.5-13.8-26.3-25.7-26.3C24.7,7.6,11.3,15.2,7.9,25.9"/>
	</defs>
	<clipPath id="SVGID_2_">
		<use xlink:href="#SVGID_1_"  style="overflow:visible;"/>
	</clipPath>
	<path class="st0" d="M-0.8,0h66.7v67.6H-0.8V0z"/>
</g>
<g>
	<defs>
		<path id="SVGID_3_" d="M24.2,28.9v5h5.1v12.4l-11.9,9.1c1.9,1.2,3.8,2.2,5.5,2.9c1.7,0.7,3.1,1.1,4.7,1.3c1.4,0.2,2.9,0.4,4.5,0.4
			h0.4c1.8,0,3.6-0.2,5.4-0.5c1.7-0.3,3.4-0.8,5.1-1.5c1.6-0.7,3.2-1.6,4.7-2.6l0.1-0.1l-12.4-8.9V34h5.1v-5H24.2z M6.9,29.6
			c-0.2,1-0.3,1.6-0.3,2.2c-0.1,0.7-0.1,1.3-0.1,2v0.1c0,2.6,0.4,5.2,1.2,7.7c0.8,2.6,2,5.1,3.5,7.3c1.5,2.3,3.4,4.3,5.5,6l0.2,0.1
			l6-17.9L7.8,26C7.4,27.2,7.2,28.4,6.9,29.6 M42.1,37.2L48.3,55c1.8-1.7,3.5-3.5,4.9-5.4c2.3-3.1,3.9-6.8,4.6-10.6
			c0.5-2.6,0.6-5.3,0.4-8c-0.1-0.8-0.2-1.7-0.4-2.5c-0.2-0.8-0.4-1.7-0.6-2.5C57.2,26,42.1,37.2,42.1,37.2z M23.8,9.3
			c-2.6,0.9-5,2.2-7.2,3.9c-2,1.5-3.8,3.4-5.2,5.5c-1.4,2-2.5,4.2-3.3,6.5l-0.1,0.4h18.6l5.8-18C29.4,7.7,26.4,8.3,23.8,9.3
			 M32.8,7.6l5.8,18H57c-1-2.4-2.2-4.7-3.6-6.7c-1.3-1.8-2.7-3.5-4.4-5c-1.5-1.3-3.1-2.5-4.9-3.4c-1.7-0.9-3.4-1.6-5.3-2
			c-1.8-0.5-3.7-0.7-5.6-0.8L32.8,7.6L32.8,7.6z"/>
	</defs>
	<clipPath id="SVGID_4_">
		<use xlink:href="#SVGID_3_"  style="overflow:visible;"/>
	</clipPath>
	<path class="st1" d="M-1,0h66.9v67.6H-1V0z"/>
</g>
</svg>
