<?xml version="1.0" encoding="UTF-8"?>
<!-- Generator: Adobe Illustrator 16.0.0, SVG Export Plug-In . SVG Version: 6.00 Build 0)  -->
<!DOCTYPE svg PUBLIC "-//W3C//DTD SVG 1.1//EN" "http://www.w3.org/Graphics/SVG/1.1/DTD/svg11.dtd">
<svg version="1.1" id="Calque_1" xmlns="http://www.w3.org/2000/svg" xmlns:xlink="http://www.w3.org/1999/xlink" x="0px" y="0px" width="35px" height="48px" viewBox="0 0 35 48" enable-background="new 0 0 35 48" xml:space="preserve">
<g>
	<g>
		<path fill-rule="evenodd" clip-rule="evenodd" fill-opacity="0.498" d="M6.4,5.85c3.2-3.2,7.067-4.8,11.6-4.8s8.417,1.6,11.65,4.8    c3.199,3.2,4.8,7.066,4.8,11.6c0,5.167-2.733,11.783-8.2,19.85C23.517,41.366,20.767,44.934,18,48    c-2.733-3.066-5.467-6.634-8.2-10.7c-5.466-8.066-8.2-14.683-8.2-19.85C1.6,12.917,3.2,9.05,6.4,5.85z"/>
		<g>
			<path fill-rule="evenodd" clip-rule="evenodd" fill="#FFDF32" d="M32.9,16.4c0,5.167-2.75,11.784-8.25,19.85     c-2.733,4.1-5.467,7.667-8.2,10.7c-2.733-3.033-5.467-6.601-8.2-10.7C2.75,28.184,0,21.567,0,16.4C0,11.867,1.617,8,4.85,4.8     C8.05,1.6,11.917,0,16.45,0c4.533,0,8.416,1.6,11.649,4.8C31.3,8,32.9,11.867,32.9,16.4z"/>
		</g>
	</g>
</g>
</svg>